<?xml version="1.0" encoding="UTF-8"?>
<svg id="Layer_1" xmlns="http://www.w3.org/2000/svg" version="1.1" viewBox="0 0 270 70">
  <!-- Generator: Adobe Illustrator 29.2.1, SVG Export Plug-In . SVG Version: 2.1.0 Build 116)  -->
  <defs>
    <style>
      .st0 {
        fill: #d4a018;
      }
    </style>
  </defs>
  <path class="st0" d="M61.6,11.4v43.6h-13.6l-25.9-26.1v26.1H7.1V11.4h16.4l23,23.6V11.4h15.1Z"/>
  <path class="st0" d="M112.2,35.4v13c0,2.5.4,4.5,1.5,6.5h-15.1c-.6-.9-1.2-2-1.2-3h0c-2.7,2.5-7.4,4.3-13.2,4.3s-16.6-2.9-16.6-11.6,9.3-11.6,16.6-11.6,10.5,1.8,13.2,4.5v-2.2c0-4.2-3.7-6.5-10.7-6.5s-8.1.6-12.6,2.5l-2.9-9.1c5-2.2,12.6-3.3,18.6-3.3,14,0,22.3,5.9,22.3,16.6h0ZM97.8,44.3c-2.2-2.7-5.9-3.4-8.9-3.4s-6.7.8-6.7,3.6,3.7,3.7,6.7,3.7,6.6-.7,8.9-3.4v-.6h0Z"/>
  <path class="st0" d="M117.4,37.5c0-11.6,7.5-18.6,18.6-18.6s10.5,1.9,13.8,5.9v-4.5h15v47.1h-15v-17c-3.3,3.9-8.1,5.8-13.8,5.8-11.1,0-18.6-7-18.6-18.6h0ZM131.7,37.5c0,4.9,3.1,7.9,8.8,7.9s6.9-1.1,9.4-4.3v-7.2c-2.5-3.2-5.9-4.3-9.4-4.3-5.7,0-8.8,3-8.8,7.9Z"/>
  <path class="st0" d="M214,43.7c0,6.9-6.8,12.7-21.4,12.7s-17.6-2.7-22.8-6l6.1-7.5c4,2.4,9.8,4.4,17.1,4.4s6.9-.5,6.9-2.1-2.2-2-8-2.4c-10.4-.6-20.6-3.7-20.6-11.7s8.2-12.3,21.2-12.3,15.1,1.7,20.1,4.5l-6.1,7.7c-3.6-2-8.5-3-14.1-3s-7,.4-7,2,2.8,1.7,8.2,2c11.5.6,20.5,3.8,20.5,11.6h0Z"/>
  <path class="st0" d="M263.9,34.2v20.7h-15v-19.7c0-3.4-2.2-5.6-6-5.6s-6.1,1.5-8.5,5v20.3h-15V8.9h15v16.4c3.1-4.1,7.8-6.3,13.8-6.3,10,0,15.7,6.4,15.7,15.2Z"/>
</svg>