<?xml version="1.0" encoding="UTF-8"?>
<svg id="Layer_1" xmlns="http://www.w3.org/2000/svg" version="1.1" viewBox="0 0 270 70">
  <!-- Generator: Adobe Illustrator 29.2.1, SVG Export Plug-In . SVG Version: 2.1.0 Build 116)  -->
  <defs>
    <style>
      .st0 {
        fill: #8d1a1c;
      }
    </style>
  </defs>
  <path class="st0" d="M61.58,11.35v43.57h-13.64l-25.87-26.08v26.08H7.1V11.35h16.44l23,23.65V11.35h15.04Z"/>
  <path class="st0" d="M112.23,35.43v13.01c0,2.49.45,4.48,1.53,6.47h-15.1c-.64-.87-1.15-1.99-1.15-3.05v-.12c-2.68,2.61-7.39,4.42-13.19,4.42-7.33,0-16.63-2.86-16.63-11.64s9.3-11.58,16.63-11.58c5.8,0,10.51,1.8,13.19,4.48v-2.18c0-4.23-3.7-6.54-10.71-6.54-3.76,0-8.09.56-12.55,2.55l-2.93-9.09c5.03-2.18,12.62-3.3,18.61-3.3,14.02,0,22.3,5.91,22.3,16.56ZM97.77,44.27c-2.23-2.68-5.93-3.36-8.86-3.36s-6.69.81-6.69,3.61,3.7,3.67,6.69,3.67,6.63-.68,8.86-3.36v-.56Z"/>
  <path class="st0" d="M117.45,37.55c0-11.58,7.52-18.61,18.61-18.61,5.73,0,10.51,1.93,13.83,5.85v-4.54h14.97v47.12h-14.97v-17.05c-3.31,3.92-8.09,5.85-13.83,5.85-11.09,0-18.61-7.03-18.61-18.61ZM131.66,37.55c0,4.92,3.12,7.9,8.79,7.9,3.44,0,6.88-1.12,9.37-4.29v-7.22c-2.49-3.17-5.93-4.29-9.37-4.29-5.67,0-8.79,3.05-8.79,7.9Z"/>
  <path class="st0" d="M213.99,43.65c0,6.91-6.82,12.7-21.35,12.7-9.75,0-17.59-2.68-22.75-6.04l6.12-7.47c4.01,2.43,9.75,4.36,17.08,4.36,4.4,0,6.88-.5,6.88-2.12,0-1.49-2.23-1.99-8.03-2.37-10.39-.56-20.58-3.67-20.58-11.7,0-7.34,8.22-12.26,21.16-12.26,7.9,0,15.1,1.68,20.07,4.48l-6.12,7.72c-3.63-1.99-8.47-2.99-14.15-2.99-3.63,0-7.01.37-7.01,1.99,0,1.49,2.8,1.74,8.22,2.05,11.47.56,20.46,3.8,20.46,11.64Z"/>
  <path class="st0" d="M263.88,34.25v20.66h-14.97v-19.73c0-3.42-2.17-5.6-5.99-5.6-3.19,0-6.05,1.49-8.48,5.04v20.29h-15.04V8.86h15.04v16.43c3.12-4.11,7.84-6.29,13.76-6.29,10,0,15.68,6.35,15.68,15.25Z"/>
</svg>