<?xml version="1.0" encoding="UTF-8"?>
<svg id="Layer_1" data-name="Layer 1" xmlns="http://www.w3.org/2000/svg" viewBox="0 0 644.54 119.03">
  <defs>
    <style>
      .cls-1 {
        fill: #fff;
      }

      .cls-2 {
        fill: #5a7ba3;
      }
    </style>
  </defs>
  <polygon class="cls-2" points="0 69.1 54.64 0 36.91 50.65 66.21 50.29 12.67 119.03 30.39 69.46 0 69.1"/>
  <g>
    <path class="cls-1" d="M89.05,24.47h29.76v9.69h-18.85v15.1h15.01v9.69h-15.01v16.93h18.85v9.69h-29.76V24.47Z"/>
    <path class="cls-1" d="M128.59,24.47h10.91v51.41h17.98v9.69h-28.89V24.47Z"/>
    <path class="cls-1" d="M166.65,24.47h29.76v9.69h-18.85v15.1h15.01v9.69h-15.01v16.93h18.85v9.69h-29.76V24.47Z"/>
    <path class="cls-1" d="M205.4,70.12v-30.2c0-10.39,5.67-16.32,16.06-16.32s15.97,5.94,15.97,16.32v5.41h-10.3v-5.94c0-4.28-2.01-6.28-5.41-6.28s-5.41,2.01-5.41,6.28v31.25c0,4.28,2.01,6.28,5.41,6.28s5.41-2.01,5.41-6.28v-7.77h10.3v7.24c0,10.39-5.59,16.32-15.97,16.32s-16.06-5.93-16.06-16.32h0Z"/>
    <path class="cls-1" d="M256.38,34.16h-11.35v-9.69h33.69v9.69h-11.43v51.41h-10.91s0-51.41,0-51.41Z"/>
    <path class="cls-1" d="M287.89,24.47h16.15c11.08,0,16.15,4.8,16.15,14.75v3.05c0,6.37-2.27,10.39-7.07,12.31v.26c5.15,1.48,7.16,6.02,7.16,13.79v8.99c0,3.14.17,5.5,1.22,7.94h-11.08c-.61-1.66-.96-2.53-.96-8.03v-9.6c0-5.76-1.83-7.68-6.9-7.68h-3.75v25.31h-10.91V24.46h-.01ZM302.81,50.57c4.28,0,6.46-1.83,6.46-6.63v-3.58c0-4.28-1.66-6.2-5.41-6.2h-5.06v16.41h4.01Z"/>
    <path class="cls-1" d="M331.62,24.47h10.91v61.1h-10.91s0-61.1,0-61.1Z"/>
    <path class="cls-1" d="M353.61,70.12v-30.2c0-10.39,5.67-16.32,16.06-16.32s15.97,5.94,15.97,16.32v5.41h-10.3v-5.94c0-4.28-2.01-6.28-5.41-6.28s-5.41,2.01-5.41,6.28v31.25c0,4.28,2.01,6.28,5.41,6.28s5.41-2.01,5.41-6.28v-7.77h10.3v7.24c0,10.39-5.59,16.32-15.97,16.32s-16.06-5.93-16.06-16.32h0Z"/>
    <path class="cls-1" d="M413.41,70.12v-30.2c0-10.39,5.67-16.32,16.06-16.32s15.97,5.94,15.97,16.32v5.41h-10.3v-5.94c0-4.28-2.01-6.28-5.41-6.28s-5.41,2.01-5.41,6.28v31.25c0,4.28,2.01,6.28,5.41,6.28s5.41-2.01,5.41-6.28v-7.77h10.3v7.24c0,10.39-5.59,16.32-15.97,16.32s-16.06-5.93-16.06-16.32h0Z"/>
    <path class="cls-1" d="M455.04,69.95v-29.85c0-10.47,5.85-16.5,16.5-16.5s16.58,6.02,16.58,16.5v29.85c0,10.39-5.85,16.5-16.58,16.5s-16.5-6.11-16.5-16.5ZM477.21,70.47v-30.9c0-4.28-2.09-6.28-5.67-6.28s-5.59,2.01-5.59,6.28v30.9c0,4.19,2.01,6.28,5.59,6.28s5.67-2.09,5.67-6.28Z"/>
    <path class="cls-1" d="M499.12,24.47h28.89v9.69h-17.98v15.8h14.05v9.69h-14.05v25.92h-10.91V24.47h0Z"/>
    <path class="cls-1" d="M537.18,24.47h28.89v9.69h-17.98v15.8h14.05v9.69h-14.05v25.92h-10.91V24.47h0Z"/>
    <path class="cls-1" d="M575.24,24.47h29.76v9.69h-18.85v15.1h15.01v9.69h-15.01v16.93h18.85v9.69h-29.76V24.47Z"/>
    <path class="cls-1" d="M614.78,24.47h29.76v9.69h-18.85v15.1h15.01v9.69h-15.01v16.93h18.85v9.69h-29.76V24.47Z"/>
  </g>
</svg>